<?xml version="1.0" encoding="UTF-8"?>
<svg xmlns="http://www.w3.org/2000/svg" xmlns:xlink="http://www.w3.org/1999/xlink" width="40px" height="40px" viewBox="0 0 40 40" version="1.1">
<g id="surface1">
<path style=" stroke:none;fill-rule:nonzero;fill:rgb(0%,0%,0%);fill-opacity:1;" d="M 34.730469 9.25 L 34.683594 9.246094 C 33.007812 9.21875 31.460938 9.820312 30.339844 10.941406 C 30.09375 11.1875 30.09375 11.582031 30.339844 11.828125 C 30.582031 12.070312 30.980469 12.070312 31.222656 11.828125 C 32.101562 10.945312 33.324219 10.472656 34.660156 10.496094 L 34.710938 10.496094 C 34.933594 10.503906 35.144531 10.386719 35.257812 10.195312 C 35.375 10.003906 35.378906 9.765625 35.269531 9.570312 C 35.160156 9.375 34.957031 9.25 34.730469 9.25 Z M 34.730469 9.25 "/>
<path style=" stroke:none;fill-rule:nonzero;fill:rgb(0%,0%,0%);fill-opacity:1;" d="M 28.449219 9.679688 C 28.617188 9.679688 28.773438 9.613281 28.890625 9.496094 C 30.015625 8.375 30.617188 6.832031 30.585938 5.152344 L 30.585938 5.101562 C 30.582031 4.761719 30.304688 4.488281 29.960938 4.488281 C 29.957031 4.488281 29.953125 4.488281 29.953125 4.488281 C 29.605469 4.496094 29.332031 4.777344 29.335938 5.125 L 29.335938 5.175781 C 29.359375 6.511719 28.886719 7.730469 28.007812 8.613281 C 27.828125 8.789062 27.777344 9.058594 27.871094 9.292969 C 27.96875 9.527344 28.195312 9.679688 28.449219 9.679688 Z M 28.449219 9.679688 "/>
<path style=" stroke:none;fill-rule:nonzero;fill:rgb(0%,0%,0%);fill-opacity:1;" d="M 31.667969 8.792969 C 31.835938 8.792969 31.992188 8.726562 32.109375 8.609375 L 34.882812 5.835938 C 35.125 5.59375 35.125 5.199219 34.882812 4.953125 C 34.636719 4.710938 34.242188 4.710938 33.996094 4.953125 L 31.226562 7.726562 C 31.046875 7.902344 30.992188 8.171875 31.089844 8.40625 C 31.1875 8.640625 31.414062 8.792969 31.667969 8.792969 Z M 31.667969 8.792969 "/>
<path style=" stroke:none;fill-rule:nonzero;fill:rgb(0%,0%,0%);fill-opacity:1;" d="M 27.246094 10.628906 C 27.070312 10.453125 26.796875 10.417969 26.582031 10.542969 L 23.398438 12.402344 C 23.25 12.488281 23.152344 12.636719 23.128906 12.804688 C 23.109375 12.972656 23.167969 13.140625 23.285156 13.261719 L 23.398438 13.371094 L 21.730469 15.039062 C 20.730469 16.039062 19.824219 16.433594 18.53125 16.609375 C 18.527344 16.609375 18.527344 16.609375 18.523438 16.609375 C 18.109375 16.664062 17.65625 16.699219 17.148438 16.722656 C 15.066406 16.8125 13.132812 17.820312 11.859375 19.472656 L 4.785156 28.648438 C 4.59375 28.898438 4.613281 29.25 4.835938 29.472656 L 10.691406 35.328125 C 10.914062 35.550781 11.265625 35.574219 11.515625 35.382812 L 20.691406 28.304688 C 22.34375 27.035156 23.351562 25.097656 23.445312 23.015625 C 23.46875 22.496094 23.503906 22.035156 23.558594 21.613281 C 23.5625 21.605469 23.5625 21.597656 23.5625 21.589844 L 23.5625 21.585938 C 23.742188 20.320312 24.140625 19.421875 25.125 18.433594 L 26.792969 16.769531 L 26.902344 16.878906 C 27.023438 17 27.195312 17.058594 27.367188 17.035156 C 27.535156 17.011719 27.683594 16.90625 27.769531 16.757812 L 29.574219 13.515625 C 29.691406 13.304688 29.65625 13.035156 29.480469 12.863281 Z M 13.367188 28.652344 C 12.769531 28.734375 12.257812 28.589844 11.914062 28.25 C 11.574219 27.910156 11.429688 27.394531 11.515625 26.796875 C 11.605469 26.140625 11.957031 25.476562 12.5 24.933594 C 13.152344 24.28125 13.980469 23.929688 14.691406 23.929688 C 15.136719 23.929688 15.535156 24.0625 15.816406 24.347656 C 16.558594 25.089844 16.289062 26.609375 15.234375 27.664062 C 14.6875 28.210938 14.027344 28.558594 13.367188 28.652344 Z M 19.929688 27.316406 L 16.144531 30.234375 L 15.191406 29.28125 C 15.527344 29.074219 15.835938 28.828125 16.117188 28.550781 C 17.679688 26.984375 17.941406 24.703125 16.703125 23.464844 C 15.460938 22.222656 13.179688 22.484375 11.617188 24.046875 C 11.335938 24.328125 11.089844 24.636719 10.882812 24.972656 L 9.929688 24.019531 L 12.851562 20.234375 C 13.898438 18.875 15.492188 18.046875 17.203125 17.96875 C 17.503906 17.957031 17.789062 17.9375 18.0625 17.914062 L 18.316406 21.203125 C 18.339844 21.503906 18.578125 21.746094 18.882812 21.777344 L 22.25 22.09375 C 22.226562 22.367188 22.210938 22.65625 22.195312 22.960938 C 22.117188 24.675781 21.289062 26.269531 19.929688 27.316406 Z M 24.242188 17.550781 C 23.183594 18.609375 22.675781 19.613281 22.421875 20.851562 L 19.523438 20.582031 L 19.304688 17.742188 C 20.546875 17.492188 21.554688 16.984375 22.613281 15.921875 L 24.28125 14.257812 L 25.910156 15.882812 Z M 24.242188 17.550781 "/>
</g>
</svg>
